<?xml version="1.0" standalone="no"?>
<!DOCTYPE svg PUBLIC "-//W3C//DTD SVG 20010904//EN"
 "http://www.w3.org/TR/2001/REC-SVG-20010904/DTD/svg10.dtd">
<svg version="1.0" xmlns="http://www.w3.org/2000/svg"
 width="31.000000pt" height="34.000000pt" viewBox="0 0 31.000000 34.000000"
 preserveAspectRatio="xMidYMid meet">

<g transform="translate(0.000000,34.000000) scale(0.100000,-0.100000)"
fill="#ffffff" stroke="none">
<path d="M50 245 c0 -19 5 -35 10 -35 6 0 10 11 10 25 0 25 1 25 85 25 84 0
85 0 85 -25 0 -14 5 -25 10 -25 6 0 10 16 10 35 l0 35 -105 0 -105 0 0 -35z"/>
<path d="M79 196 l-67 -21 26 -52 c25 -51 42 -67 42 -40 -1 6 -7 23 -15 37
-22 39 -18 47 29 59 25 6 47 11 50 11 3 0 6 -25 6 -55 0 -30 5 -55 10 -55 6 0
10 25 10 56 0 62 1 62 75 34 30 -11 30 -11 5 -60 -15 -30 -17 -40 -7 -40 13 0
65 96 56 104 -5 4 -146 46 -151 45 -1 -1 -33 -11 -69 -23z"/>
<path d="M0 31 c0 -22 34 -28 157 -28 101 0 136 3 144 14 17 19 5 27 -19 12
-17 -10 -23 -10 -37 1 -12 10 -19 10 -27 2 -15 -15 -48 -16 -48 -2 0 6 -7 10
-15 10 -8 0 -15 -4 -15 -10 0 -13 -33 -13 -47 1 -8 8 -17 7 -32 -2 -16 -11
-23 -11 -33 -1 -14 14 -28 16 -28 3z"/>
</g>
</svg>
